<svg width="32" height="41" viewBox="0 0 32 41" fill="none" xmlns="http://www.w3.org/2000/svg">
<path d="M1.11416 0H22.0069L31.9499 10.144V39.2205C31.9502 39.3684 31.9216 39.5149 31.8657 39.6517C31.8099 39.7885 31.7278 39.9128 31.6243 40.0175C31.5208 40.1222 31.3979 40.2053 31.2626 40.262C31.1273 40.3186 30.9822 40.3478 30.8357 40.3478H1.11416C0.818456 40.3472 0.53507 40.2282 0.326191 40.0168C0.117311 39.8055 -6.18312e-07 39.5191 0 39.2205V1.12506C0 0.826676 0.117385 0.540514 0.32633 0.329524C0.535275 0.118534 0.818665 0 1.11416 0Z" fill="#DC2E1B"/>
<path d="M22.0547 0V9.01895C22.0553 9.31715 22.1729 9.60296 22.3817 9.81382C22.5905 10.0247 22.8735 10.1434 23.1688 10.144H31.9999L22.0547 0Z" fill="#FF97A9"/>
<path d="M4.91992 21.5214H8.34459C8.70649 21.5208 9.06754 21.5571 9.42222 21.6297C9.80888 21.7466 10.1668 21.9446 10.4724 22.2107C10.7902 22.4577 11.0395 22.7832 11.1962 23.1559C11.4011 23.5952 11.5012 24.0769 11.4884 24.5623C11.4872 25.2945 11.2246 26.0017 10.7487 26.5542C10.2449 27.1843 9.50593 27.5079 8.5318 27.5248H6.34915V31.3818H4.91992V21.5214ZM6.34915 26.1323H8.47244C8.69809 26.1439 8.92342 26.1037 9.13144 26.0146C9.33946 25.9256 9.52475 25.79 9.67336 25.6182C9.92229 25.3122 10.0579 24.9283 10.0569 24.5323C10.0655 24.2458 10.0117 23.9609 9.89939 23.6977C9.79477 23.4972 9.63658 23.3302 9.44277 23.2159C9.13733 23.0193 8.77956 22.9219 8.41765 22.9369H6.34915V26.1323Z" fill="white"/>
<path d="M13.0391 21.5214H16.345C16.9301 21.5015 17.509 21.6464 18.0171 21.94C18.5252 22.2336 18.9423 22.6642 19.2217 23.1836C19.4446 23.533 19.5923 23.9257 19.6555 24.3363C19.7145 25.0347 19.7382 25.7357 19.7263 26.4366C19.7445 27.1768 19.7079 27.9174 19.6167 28.6521C19.5869 28.8466 19.5348 29.037 19.4615 29.2193C19.382 29.3929 19.2936 29.5622 19.1966 29.7265C18.9147 30.1989 18.5228 30.5946 18.0551 30.8792C17.5167 31.2168 16.8916 31.386 16.2582 31.3657H13.0619L13.0391 21.5214ZM14.4706 29.9663H16.1829C16.9866 29.9663 17.571 29.6781 17.9341 29.1063C18.1042 28.8692 18.2089 28.5908 18.2377 28.2994C18.2877 27.7014 18.3075 27.1012 18.2971 26.5012C18.2971 25.6435 18.2765 25.028 18.2377 24.6568C18.2041 24.3267 18.0764 24.0136 17.8701 23.7554C17.6852 23.4801 17.4322 23.2584 17.1362 23.1124C16.8403 22.9664 16.5116 22.9011 16.1829 22.9231H14.4706V29.9663Z" fill="white"/>
<path d="M21.6699 21.5214H27.7042V22.9254H23.0991V25.8487H27.0284V27.1697H23.0991V31.3818H21.6699V21.5214Z" fill="white"/>
</svg>