<svg width="32" height="40" viewBox="0 0 32 40" fill="none" xmlns="http://www.w3.org/2000/svg">
<path d="M1.11591 0H22.0414L32 10.0566V38.8823C32 39.1784 31.8825 39.4623 31.6733 39.6718C31.4641 39.8814 31.1803 39.9994 30.8841 40H1.11591C0.819741 39.9994 0.53591 39.8814 0.326702 39.6718C0.117495 39.4623 -6.19282e-07 39.1784 0 38.8823V1.11536C0 0.819549 0.117569 0.535855 0.326842 0.326683C0.536115 0.117512 0.819951 0 1.11591 0Z" fill="#CDA68E"/>
<path d="M21.9902 0V8.9412C21.9902 9.23701 22.1078 9.52071 22.3171 9.72988C22.5263 9.93906 22.8102 10.0566 23.1061 10.0566H31.9488L21.9902 0Z" fill="#F9C9AC"/>
<path d="M15.1599 26.8482C15.1562 26.5238 15.1857 26.1999 15.2477 25.8813C15.3191 25.588 15.4434 25.3099 15.6146 25.0605L17.1827 22.7411C17.4491 22.3785 17.6009 21.9456 17.6187 21.4974C17.6283 21.2673 17.5892 21.0377 17.5039 20.8235C17.4185 20.6093 17.2888 20.4152 17.1232 20.2537C16.8184 19.975 16.4182 19.8215 16.0036 19.8244C15.5889 19.8272 15.1909 19.9863 14.8902 20.2693C14.5483 20.5802 14.3759 21.1119 14.3759 21.8581H12.5224V21.485C12.5117 21.0142 12.5983 20.5463 12.7768 20.11C12.9553 19.6737 13.222 19.2782 13.5604 18.9479C13.8699 18.6269 14.2418 18.3713 14.6536 18.1966C15.0654 18.0218 15.5086 17.9316 15.9565 17.9312C16.861 17.9222 17.7348 18.2558 18.3996 18.864C18.9914 19.4614 19.3634 20.2388 19.4555 21.0712C19.5477 21.9036 19.3547 22.7426 18.9076 23.453L17.3145 25.7911C17.0886 26.1408 16.9789 26.5518 17.0008 26.9664V28.0328H15.1442L15.1599 26.8482ZM15.1599 29.4506H17.0165V31.3441H15.1599V29.4506Z" fill="white"/>
</svg>